<svg xmlns="http://www.w3.org/2000/svg" width="520" height="520" viewBox="0 0 520 520">
  <defs>
    <pattern id="manuart-pattern" width="130" height="130" patternUnits="userSpaceOnUse">
      <g fill="none" stroke="#d4af37" stroke-width="1">
        <path d="M65 15 L115 65 L65 115 L15 65 Z" opacity="0.45"/>
        <path d="M65 35 L95 65 L65 95 L35 65 Z" opacity="0.35"/>
        <path d="M65 2 L65 12" opacity="0.3"/>
        <path d="M65 118 L65 128" opacity="0.3"/>
        <path d="M2 65 L12 65" opacity="0.3"/>
        <path d="M118 65 L128 65" opacity="0.3"/>
        <path d="M20 20 L26 20 L26 26" opacity="0.3"/>
        <path d="M110 20 L104 20 L104 26" opacity="0.3"/>
        <path d="M20 110 L26 110 L26 104" opacity="0.3"/>
        <path d="M110 110 L104 110 L104 104" opacity="0.3"/>
      </g>
      <circle cx="65" cy="65" r="2.4" fill="#d4af37" opacity="0.55"/>
    </pattern>
  </defs>
  <rect width="520" height="520" fill="url(#manuart-pattern)"/>
</svg>
